HIERARCHY
ROOT mixamorig:Hips
{
	OFFSET 0.000000 201.639420 0.000000
	CHANNELS 6 Xposition Yposition Zposition Xrotation Yrotation Zrotation
	JOINT mixamorig:Spine
	{
		OFFSET 0.006200 19.524994 -2.481800
		CHANNELS 3 Xrotation Yrotation Zrotation
		JOINT mixamorig:Spine1
		{
			OFFSET -0.000900 22.835007 -2.825400
			CHANNELS 3 Xrotation Yrotation Zrotation
			JOINT mixamorig:Spine2
			{
				OFFSET -0.020600 26.552490 -3.193300
				CHANNELS 3 Xrotation Yrotation Zrotation
				JOINT mixamorig:Neck
				{
					OFFSET -0.060000 30.701813 1.352200
					CHANNELS 3 Xrotation Yrotation Zrotation
					JOINT mixamorig:Head
					{
						OFFSET -0.087200 22.547607 3.670900
						CHANNELS 3 Xrotation Yrotation Zrotation
						JOINT mixamorig:HeadTop_End
						{
							OFFSET -0.830600 40.355194 7.893500
							CHANNELS 3 Xrotation Yrotation Zrotation
							End Site
							{
								OFFSET 0.000000 30.592346 0.000000
							}
						}
						JOINT mixamorig:RightEye
						{
							OFFSET -6.302100 18.118591 16.197100
							CHANNELS 3 Xrotation Yrotation Zrotation
							End Site
							{
								OFFSET 0.000000 30.592346 0.000000
							}
						}
						JOINT mixamorig:LeftEye
						{
							OFFSET 6.741500 18.382690 16.401899
							CHANNELS 3 Xrotation Yrotation Zrotation
							End Site
							{
								OFFSET 0.000000 30.592346 0.000000
							}
						}
					}
				}
				JOINT mixamorig:LeftShoulder
				{
					OFFSET 11.924900 18.230499 1.425400
					CHANNELS 3 Xrotation Yrotation Zrotation
					JOINT mixamorig:LeftArm
					{
						OFFSET 25.435989 -0.697632 -5.229300
						CHANNELS 3 Xrotation Yrotation Zrotation
						JOINT mixamorig:LeftForeArm
						{
							OFFSET 54.684776 0.000000 0.000000
							CHANNELS 3 Xrotation Yrotation Zrotation
							JOINT mixamorig:LeftHand
							{
								OFFSET 55.098175 0.000000 0.000000
								CHANNELS 3 Xrotation Yrotation Zrotation
								JOINT mixamorig:LeftHandMiddle1
								{
									OFFSET 23.369751 0.000000 0.000000
									CHANNELS 3 Xrotation Yrotation Zrotation
									JOINT mixamorig:LeftHandMiddle2
									{
										OFFSET 6.378677 0.000000 0.000000
										CHANNELS 3 Xrotation Yrotation Zrotation
										JOINT mixamorig:LeftHandMiddle3
										{
											OFFSET 6.148331 0.000000 0.000000
											CHANNELS 3 Xrotation Yrotation Zrotation
											JOINT mixamorig:LeftHandMiddle4
											{
												OFFSET 6.582504 0.000000 0.000000
												CHANNELS 3 Xrotation Yrotation Zrotation
												End Site
												{
													OFFSET -1.168900 6.395691 1.028606
												}
											}
										}
									}
								}
								JOINT mixamorig:LeftHandThumb1
								{
									OFFSET 7.235672 -3.848206 5.434273
									CHANNELS 3 Xrotation Yrotation Zrotation
									JOINT mixamorig:LeftHandThumb2
									{
										OFFSET 6.568451 -3.792297 3.792300
										CHANNELS 3 Xrotation Yrotation Zrotation
										JOINT mixamorig:LeftHandThumb3
										{
											OFFSET 6.063080 -3.500519 3.500518
											CHANNELS 3 Xrotation Yrotation Zrotation
											JOINT mixamorig:LeftHandThumb4
											{
												OFFSET 4.793182 -2.767334 2.767349
												CHANNELS 3 Xrotation Yrotation Zrotation
												End Site
												{
													OFFSET 0.101639 6.054260 1.275483
												}
											}
										}
									}
								}
								JOINT mixamorig:LeftHandIndex1
								{
									OFFSET 23.101074 -0.309540 4.992809
									CHANNELS 3 Xrotation Yrotation Zrotation
									JOINT mixamorig:LeftHandIndex2
									{
										OFFSET 6.226883 0.000000 0.000000
										CHANNELS 3 Xrotation Yrotation Zrotation
										JOINT mixamorig:LeftHandIndex3
										{
											OFFSET 6.094330 0.000000 0.000000
											CHANNELS 3 Xrotation Yrotation Zrotation
											JOINT mixamorig:LeftHandIndex4
											{
												OFFSET 5.482605 0.000000 0.000000
												CHANNELS 3 Xrotation Yrotation Zrotation
												End Site
												{
													OFFSET -1.427902 5.233032 0.797164
												}
											}
										}
									}
								}
								JOINT mixamorig:LeftHandRing1
								{
									OFFSET 22.299240 0.021149 -3.964172
									CHANNELS 3 Xrotation Yrotation Zrotation
									JOINT mixamorig:LeftHandRing2
									{
										OFFSET 6.321869 0.000000 0.000000
										CHANNELS 3 Xrotation Yrotation Zrotation
										JOINT mixamorig:LeftHandRing3
										{
											OFFSET 5.899796 0.000000 0.000000
											CHANNELS 3 Xrotation Yrotation Zrotation
											JOINT mixamorig:LeftHandRing4
											{
												OFFSET 6.517899 0.000000 0.000000
												CHANNELS 3 Xrotation Yrotation Zrotation
												End Site
												{
													OFFSET -1.637299 6.232208 0.980890
												}
											}
										}
									}
								}
								JOINT mixamorig:LeftHandPinky1
								{
									OFFSET 20.463791 -0.302338 -8.562233
									CHANNELS 3 Xrotation Yrotation Zrotation
									JOINT mixamorig:LeftHandPinky2
									{
										OFFSET 6.908646 0.000000 0.000000
										CHANNELS 3 Xrotation Yrotation Zrotation
										JOINT mixamorig:LeftHandPinky3
										{
											OFFSET 4.622849 0.000000 0.000000
											CHANNELS 3 Xrotation Yrotation Zrotation
											JOINT mixamorig:LeftHandPinky4
											{
												OFFSET 5.216080 0.000000 0.000000
												CHANNELS 3 Xrotation Yrotation Zrotation
												End Site
												{
													OFFSET -0.606308 5.116241 0.814926
												}
											}
										}
									}
								}
							}
						}
					}
				}
				JOINT mixamorig:RightShoulder
				{
					OFFSET -12.001300 18.284088 1.348900
					CHANNELS 3 Xrotation Yrotation Zrotation
					JOINT mixamorig:RightArm
					{
						OFFSET -25.308500 -0.751312 -5.164599
						CHANNELS 3 Xrotation Yrotation Zrotation
						JOINT mixamorig:RightForeArm
						{
							OFFSET -54.684429 0.000000 0.000000
							CHANNELS 3 Xrotation Yrotation Zrotation
							JOINT mixamorig:RightHand
							{
								OFFSET -55.150291 0.000000 0.000000
								CHANNELS 3 Xrotation Yrotation Zrotation
								JOINT mixamorig:RightHandMiddle1
								{
									OFFSET -23.317566 0.000000 0.000000
									CHANNELS 3 Xrotation Yrotation Zrotation
									JOINT mixamorig:RightHandMiddle2
									{
										OFFSET -6.378403 0.000000 0.000000
										CHANNELS 3 Xrotation Yrotation Zrotation
										JOINT mixamorig:RightHandMiddle3
										{
											OFFSET -6.148193 0.000000 0.000000
											CHANNELS 3 Xrotation Yrotation Zrotation
											JOINT mixamorig:RightHandMiddle4
											{
												OFFSET -6.583389 0.000000 0.000000
												CHANNELS 3 Xrotation Yrotation Zrotation
												End Site
												{
													OFFSET 1.171692 6.395905 1.029786
												}
											}
										}
									}
								}
								JOINT mixamorig:RightHandThumb1
								{
									OFFSET -7.190521 -3.860474 5.435846
									CHANNELS 3 Xrotation Yrotation Zrotation
									JOINT mixamorig:RightHandThumb2
									{
										OFFSET -6.567429 -3.791718 3.791708
										CHANNELS 3 Xrotation Yrotation Zrotation
										JOINT mixamorig:RightHandThumb3
										{
											OFFSET -6.062469 -3.500153 3.500166
											CHANNELS 3 Xrotation Yrotation Zrotation
											JOINT mixamorig:RightHandThumb4
											{
												OFFSET -4.792618 -2.767029 2.767022
												CHANNELS 3 Xrotation Yrotation Zrotation
												End Site
												{
													OFFSET -0.100327 6.053253 1.276754
												}
											}
										}
									}
								}
								JOINT mixamorig:RightHandIndex1
								{
									OFFSET -23.048981 -0.310791 4.992554
									CHANNELS 3 Xrotation Yrotation Zrotation
									JOINT mixamorig:RightHandIndex2
									{
										OFFSET -6.227539 0.000000 0.000000
										CHANNELS 3 Xrotation Yrotation Zrotation
										JOINT mixamorig:RightHandIndex3
										{
											OFFSET -6.095047 0.000000 0.000000
											CHANNELS 3 Xrotation Yrotation Zrotation
											JOINT mixamorig:RightHandIndex4
											{
												OFFSET -5.484772 0.000000 0.000000
												CHANNELS 3 Xrotation Yrotation Zrotation
												End Site
												{
													OFFSET 1.420593 5.237305 0.797056
												}
											}
										}
									}
								}
								JOINT mixamorig:RightHandRing1
								{
									OFFSET -22.246323 0.020569 -3.963762
									CHANNELS 3 Xrotation Yrotation Zrotation
									JOINT mixamorig:RightHandRing2
									{
										OFFSET -6.322128 0.000000 0.000000
										CHANNELS 3 Xrotation Yrotation Zrotation
										JOINT mixamorig:RightHandRing3
										{
											OFFSET -5.900024 0.000000 0.000000
											CHANNELS 3 Xrotation Yrotation Zrotation
											JOINT mixamorig:RightHandRing4
											{
												OFFSET -6.518356 0.000000 0.000000
												CHANNELS 3 Xrotation Yrotation Zrotation
												End Site
												{
													OFFSET 1.636398 6.232697 0.982186
												}
											}
										}
									}
								}
								JOINT mixamorig:RightHandPinky1
								{
									OFFSET -20.411011 -0.303314 -8.561701
									CHANNELS 3 Xrotation Yrotation Zrotation
									JOINT mixamorig:RightHandPinky2
									{
										OFFSET -6.907349 0.000000 0.000000
										CHANNELS 3 Xrotation Yrotation Zrotation
										JOINT mixamorig:RightHandPinky3
										{
											OFFSET -4.623840 0.000000 0.000000
											CHANNELS 3 Xrotation Yrotation Zrotation
											JOINT mixamorig:RightHandPinky4
											{
												OFFSET -5.218353 0.000000 0.000000
												CHANNELS 3 Xrotation Yrotation Zrotation
												End Site
												{
													OFFSET 0.602097 5.118835 0.816273
												}
											}
										}
									}
								}
							}
						}
					}
				}
			}
		}
	}
	JOINT mixamorig:LeftUpLeg
	{
		OFFSET 18.168400 -13.561905 -0.039000
		CHANNELS 3 Xrotation Yrotation Zrotation
		JOINT mixamorig:LeftLeg
		{
			OFFSET 0.577358 -80.825211 -3.695000
			CHANNELS 3 Xrotation Yrotation Zrotation
			JOINT mixamorig:LeftFoot
			{
				OFFSET -0.577356 -83.370262 -6.520700
				CHANNELS 3 Xrotation Yrotation Zrotation
				JOINT mixamorig:LeftToeBase
				{
					OFFSET 0.750401 -20.798306 25.135401
					CHANNELS 3 Xrotation Yrotation Zrotation
					JOINT mixamorig:LeftToe_End
					{
						OFFSET -0.000500 0.001200 19.917799
						CHANNELS 3 Xrotation Yrotation Zrotation
						End Site
						{
							OFFSET 0.000000 19.917805 0.000000
						}
					}
				}
			}
		}
	}
	JOINT mixamorig:RightUpLeg
	{
		OFFSET -18.162500 -13.585098 -0.041000
		CHANNELS 3 Xrotation Yrotation Zrotation
		JOINT mixamorig:RightLeg
		{
			OFFSET -0.595024 -80.945297 -3.631900
			CHANNELS 3 Xrotation Yrotation Zrotation
			JOINT mixamorig:RightFoot
			{
				OFFSET 0.595024 -83.218193 -6.561200
				CHANNELS 3 Xrotation Yrotation Zrotation
				JOINT mixamorig:RightToeBase
				{
					OFFSET -0.753601 -20.807106 25.115000
					CHANNELS 3 Xrotation Yrotation Zrotation
					JOINT mixamorig:RightToe_End
					{
						OFFSET 0.000299 0.001700 19.918200
						CHANNELS 3 Xrotation Yrotation Zrotation
						End Site
						{
							OFFSET 0.000000 19.918203 0.000000
						}
					}
				}
			}
		}
	}
}
MOTION
Frames: 4
Frame Time: 0.033333
-37.287434 403.208557 48.474487 38.692219 7.617991 9.144440 5.368699 2.674203 -1.303406 10.808475 4.889367 -2.844191 10.808471 4.889365 -2.844195 -13.301863 -10.649780 2.563275 -21.057975 7.355824 1.685897 -0.000000 -0.000001 -0.000000 -0.000000 -0.000001 -0.000000 -0.000000 -0.000001 -0.000000 -26.230078 -24.468284 -5.676043 -43.130524 -46.705151 -58.058718 -373.620090 -95.587726 -372.002729 41.328385 -11.236129 1.608851 -0.070164 0.964018 -30.175544 -0.848277 -2.610123 -33.703654 -0.000000 0.000001 -0.000000 0.000003 -0.000002 0.000004 -13.942967 -17.030633 -0.209564 3.579342 11.045940 1.847253 -0.000002 -0.000008 0.000003 0.000000 -0.000001 -0.000000 -2.978674 3.835104 -22.168151 0.186930 0.606195 -32.415712 -0.000002 0.000000 0.000004 -0.000001 -0.000001 0.000003 -1.738019 2.338180 -34.551881 -1.227817 -3.765016 -45.138319 0.000006 -0.000001 0.000009 0.000001 0.000000 -0.000002 -2.680179 6.578361 -42.095685 -0.397984 -4.401499 -30.494729 -0.000001 0.000003 -0.000005 -0.000001 0.000002 -0.000002 21.951425 -48.043909 41.149223 14.996310 -20.790910 19.916690 -182.987502 34.909968 174.859973 -74.296325 14.628788 -11.060487 -5.110607 7.750336 76.393699 -2.136222 2.272090 48.103093 -0.000005 -0.000003 -0.000001 -0.000001 -0.000001 -0.000001 -46.297163 -13.933699 0.632298 16.850078 -33.585188 0.364778 0.000007 0.000003 -0.000005 0.000005 0.000002 0.000001 11.555234 10.452774 72.502253 0.026970 -2.951050 74.802756 0.000009 0.000012 0.000000 0.000001 -0.000000 -0.000003 -3.137965 13.124644 50.993059 -2.188283 -1.053855 77.786238 0.000002 0.000014 -0.000003 -0.000000 -0.000001 0.000001 1.014698 9.254162 13.585618 -9.427371 12.640239 87.475688 0.000003 -0.000017 0.000009 0.000001 0.000000 0.000002 -144.796254 7.038948 13.175885 112.212304 -0.644194 -3.406896 -17.995214 -11.607496 -1.236885 -6.627066 -0.037411 0.077004 0.000001 -0.000000 0.000000 -65.516875 -4.814300 -5.599389 15.103763 -1.375049 0.103889 -6.409023 -19.718763 0.192327 2.048009 -0.113223 0.267702 -0.000000 -0.000002 0.000000 
-37.257469 407.867249 54.976471 39.170606 7.016655 8.890406 5.390491 2.687221 -1.432926 10.859820 4.831898 -3.149081 10.859825 4.831899 -3.149078 -11.758342 -10.559950 2.229703 -20.124736 7.119633 1.966929 -0.000001 0.000002 0.000000 -0.000001 0.000002 0.000000 -0.000001 0.000002 0.000000 -26.303588 -25.476153 -6.988646 -42.824719 -46.588669 -59.429572 -386.319516 -92.987247 -387.583019 37.547462 -11.104671 1.788763 -0.111561 0.930818 -28.164022 -0.776131 -2.570314 -32.951141 -0.000006 0.000001 0.000006 -0.000003 -0.000001 0.000004 -16.965862 -14.811807 -1.944177 3.418830 10.236207 2.137697 -0.000002 -0.000012 0.000002 0.000003 -0.000000 -0.000000 -2.762467 3.229495 -20.527965 0.218872 0.596982 -31.850893 -0.000002 0.000001 0.000003 -0.000001 -0.000002 0.000004 -1.630414 2.465214 -31.811695 -1.153150 -3.765593 -43.961942 0.000005 -0.000003 0.000010 0.000003 0.000000 -0.000002 -1.438522 8.192688 -38.860945 -0.478440 -4.506326 -29.532727 -0.000002 0.000003 -0.000000 0.000002 0.000001 0.000001 20.749937 -46.298529 41.554140 19.192386 -21.227656 18.284355 -181.151671 39.384691 175.747270 -69.276123 20.455915 -8.569730 -5.087298 7.762550 76.261378 -2.129097 2.286684 48.048584 -0.000001 -0.000002 -0.000002 0.000003 -0.000001 -0.000002 -46.237498 -13.848658 0.657403 16.836819 -33.566398 0.357894 0.000006 0.000002 -0.000005 -0.000004 0.000003 0.000000 11.556738 10.423111 72.372295 0.023883 -2.930553 74.707885 0.000008 0.000012 -0.000001 0.000002 -0.000002 0.000002 -3.103827 13.107911 50.922694 -2.201022 -1.030907 77.682207 0.000002 0.000014 -0.000000 -0.000000 -0.000001 0.000002 1.026522 9.228327 13.582652 -9.418095 12.653704 87.374655 0.000003 -0.000015 0.000005 0.000001 0.000001 0.000000 -141.193834 6.521803 12.315176 112.416239 -1.041243 -3.391306 -21.129248 -10.912894 -1.831207 -6.110987 -0.036537 0.075909 -0.000001 0.000000 0.000000 -57.014249 -4.973927 -4.300499 3.903712 -2.060029 -0.106299 -1.833820 -18.106073 1.533471 1.429157 -0.112163 0.266009 0.000001 -0.000000 -0.000000 
-36.332153 416.582092 63.993492 39.631985 6.089009 8.761996 5.544010 2.551564 -1.693957 11.176158 4.427018 -3.761017 11.176159 4.427022 -3.761022 -10.139907 -10.245667 2.449669 -19.178463 6.861637 2.429660 -0.000000 -0.000000 -0.000000 -0.000000 -0.000000 -0.000000 -0.000000 -0.000000 -0.000000 -26.163969 -26.338019 -8.366641 -41.681496 -46.601414 -60.033914 -311.051350 -87.161977 -314.372543 33.132677 -11.395248 2.206016 -0.149632 0.938568 -26.371982 -0.712530 -2.532919 -32.220154 -0.000003 0.000002 0.000004 0.000002 0.000000 -0.000001 -19.437373 -12.763598 -3.157587 3.315698 9.613344 2.351064 -0.000006 -0.000011 0.000003 0.000002 -0.000001 0.000001 -2.596280 2.740135 -19.171200 0.239965 0.577386 -31.313839 -0.000002 0.000000 0.000002 -0.000002 0.000000 -0.000000 -1.535473 2.589411 -29.321920 -1.082025 -3.752490 -42.835248 0.000007 0.000001 0.000011 -0.000001 -0.000001 -0.000003 -0.379402 9.542143 -35.937536 -0.532901 -4.561675 -28.534790 -0.000001 -0.000001 0.000001 -0.000001 -0.000000 -0.000000 18.988088 -43.240357 41.359428 21.214325 -16.511292 18.708628 -179.099595 49.397328 177.102202 -63.305561 25.711708 -6.806663 -5.070658 7.770985 76.163870 -2.124041 2.297196 48.009236 0.000001 -0.000005 -0.000001 0.000000 -0.000003 -0.000001 -46.192218 -13.787617 0.674625 16.825505 -33.550541 0.351746 0.000007 0.000001 -0.000001 0.000004 0.000000 0.000000 11.552790 10.401668 72.280156 0.019144 -2.916257 74.638654 0.000007 0.000015 0.000004 0.000006 0.000000 -0.000001 -3.078741 13.094815 50.871252 -2.209338 -1.014735 77.605552 -0.000003 0.000014 0.000001 0.000002 -0.000001 0.000001 1.033970 9.207533 13.580239 -9.408779 12.664072 87.301292 0.000003 -0.000012 0.000006 -0.000001 0.000001 -0.000001 -133.864741 6.542189 10.555771 111.019555 -2.834962 -3.519408 -25.680852 -8.292738 -1.392395 -4.960860 -0.034502 0.073482 -0.000000 0.000000 0.000000 -54.170705 -4.527712 -3.413495 7.967651 -1.851551 -0.095689 0.210689 -13.410376 3.269097 0.396652 -0.110396 0.263209 0.000000 0.000001 0.000000 
-34.663406 427.507263 73.052307 39.932599 4.918144 8.498189 5.826290 2.245600 -2.038575 11.742729 3.808521 -4.498557 11.742736 3.808523 -4.498557 -8.455910 -9.852437 3.352665 -18.227079 6.584436 3.042166 0.000003 -0.000001 -0.000001 0.000003 -0.000001 -0.000001 0.000003 -0.000001 -0.000001 -25.814311 -27.062512 -9.672421 -40.347809 -46.810473 -60.155443 -336.746030 -81.370926 -341.568089 28.122409 -12.798963 2.737088 -0.183055 0.983799 -24.787224 -0.657019 -2.497738 -31.511187 -0.000008 0.000001 0.000001 -0.000000 0.000000 0.000000 -21.424283 -10.899233 -3.920941 3.260537 9.163281 2.496098 -0.000002 -0.000010 0.000004 0.000002 0.000002 0.000002 -2.475595 2.357096 -18.079458 0.251044 0.548489 -30.802838 -0.000001 -0.000004 0.000007 -0.000000 0.000000 0.000000 -1.450612 2.710349 -27.071351 -1.014346 -3.727052 -41.757523 0.000004 -0.000000 0.000009 -0.000005 0.000002 -0.000001 0.505754 10.644650 -33.304962 -0.563717 -4.571803 -27.509237 -0.000002 0.000002 -0.000000 -0.000001 -0.000000 -0.000002 17.135017 -39.187913 41.080282 19.937208 -9.188277 20.782331 -178.278989 63.019649 178.297266 -59.145408 28.788861 -4.143317 -5.115512 7.747840 76.414101 -2.137727 2.269499 48.112525 0.000002 -0.000004 -0.000000 -0.000001 0.000001 0.000001 -46.297307 -13.959624 0.634532 16.850276 -33.588220 0.361723 0.000009 0.000004 -0.000009 -0.000002 -0.000000 0.000002 11.550094 10.458087 72.532941 0.022675 -2.955588 74.818131 0.000005 0.000015 -0.000002 0.000002 0.000000 -0.000001 -3.141767 13.127116 50.997683 -2.182757 -1.062003 77.806954 -0.000002 0.000016 0.000002 -0.000004 0.000002 -0.000001 1.011953 9.254275 13.569476 -9.426509 12.638922 87.506526 0.000008 -0.000015 0.000008 0.000001 -0.000002 0.000003 -124.344823 6.746514 8.056717 106.730722 -5.072132 -3.658384 -28.984331 -4.679569 0.076131 -3.968996 -0.032729 0.071400 0.000000 -0.000000 0.000000 -45.789756 -4.103548 -1.926213 4.067235 -1.268653 0.129695 11.321308 -7.441199 4.018477 -0.220320 -0.109386 0.261569 0.000000 -0.000001 0.000000 
